<svg width="24" height="24" viewBox="0 0 24 24" fill="none" xmlns="http://www.w3.org/2000/svg">
<path d="M18.4037 8.40792C18.3156 8.31908 18.2108 8.24857 18.0953 8.20045C17.9798 8.15234 17.8559 8.12756 17.7308 8.12756C17.6057 8.12756 17.4818 8.15234 17.3663 8.20045C17.2508 8.24857 17.146 8.31908 17.0579 8.40792L12.717 12.7488C12.6289 12.8376 12.5241 12.9081 12.4086 12.9562C12.2931 13.0044 12.1692 13.0291 12.0441 13.0291C11.919 13.0291 11.7951 13.0044 11.6796 12.9562C11.5641 12.9081 11.4593 12.8376 11.3711 12.7488L7.03028 8.40792C6.94217 8.31908 6.83735 8.24857 6.72185 8.20045C6.60635 8.15234 6.48247 8.12756 6.35735 8.12756C6.23223 8.12756 6.10835 8.15234 5.99286 8.20045C5.87736 8.24857 5.77253 8.31908 5.68442 8.40792C5.5079 8.5855 5.40881 8.82571 5.40881 9.07611C5.40881 9.3265 5.5079 9.56672 5.68442 9.74429L10.0348 14.0946C10.5679 14.6271 11.2906 14.9262 12.0441 14.9262C12.7976 14.9262 13.5203 14.6271 14.0534 14.0946L18.4037 9.74429C18.5803 9.56672 18.6793 9.3265 18.6793 9.07611C18.6793 8.82571 18.5803 8.5855 18.4037 8.40792Z" fill="currentcolor"/>
</svg>
