<svg width="42" height="42" viewBox="0 0 42 42" fill="none" xmlns="http://www.w3.org/2000/svg">
<path d="M33.25 38.4999H8.75C7.7835 38.4999 7 37.7164 7 36.7499V19.9744C7 19.5103 7.18454 19.0652 7.51275 18.7371L19.7627 6.48713C20.091 6.15852 20.5364 5.97388 21.0009 5.97388C21.4653 5.97388 21.9108 6.15852 22.239 6.48713L34.489 18.7371C34.8176 19.0649 35.0015 19.5103 35 19.9744V36.7499C35 37.7164 34.2165 38.4999 33.25 38.4999ZM17.5 26.2499H24.5V34.9999H31.5V20.6989L21 10.1989L10.5 20.6989V34.9999H17.5V26.2499Z" fill="currentcolor"/>
</svg>
